<?xml version="1.0" standalone="no"?><!DOCTYPE svg PUBLIC "-//W3C//DTD SVG 1.1//EN" "http://www.w3.org/Graphics/SVG/1.1/DTD/svg11.dtd"><svg t="1628614192829" class="icon" viewBox="0 0 1024 1024" version="1.1" xmlns="http://www.w3.org/2000/svg" p-id="3589" xmlns:xlink="http://www.w3.org/1999/xlink" width="200" height="200"><defs><style type="text/css"></style></defs><path d="M179.67057406 32h664.65875813A147.57645656 147.57645656 0 0 1 991.99990625 178.63527969v666.72934687A147.57645656 147.57645656 0 0 1 844.32933219 991.99990625H179.67057406A147.57645656 147.57645656 0 0 1 32 845.36462656V178.63527969A147.57645656 147.57645656 0 0 1 179.67057406 32z" fill="#0078D1" p-id="3590"></path><path d="M259.67056625 511.24701219h103.99998938c2.25882375-34.82352563 0-109.64704781 0-162.63527813h-50.82352407c-14.21176313 31.24705594-27.48235031 56.4705825-53.74117125 66.8235225a59.85881812 59.85881812 0 0 1-38.87058468 3.38823469c11.48235188 1.41176437 50.9176425-141.17645719 70.21175812-167.34115969a72.75293437 72.75293437 0 0 1 53.92940625-27.01176187 299.48232375 299.48232375 0 0 1-23.05882125 80.94116812H513.88230594v43.19999625H409.50584562c0 52.23528938 1.97647031 127.05881062 0 162.63527813h120.75292875l-0.56470593 43.67058375-122.35292907-0.65882344c-1.12941187 9.41176406-2.16470531 32.37646781-3.29411718 41.1294075 0 0 64.09411125 67.01175844 98.16469687 110.49410719v75.29410969c-36.32940844-48.37646625-111.99998906-138.63528094-111.99998906-138.63528-45.64705406 115.76469469-109.27057781 157.45880812-109.27057781 157.45880812H210.82351156s138.63528094-151.90586719 149.17645594-244.70585906h-144.94116188z m293.36467687-208.56468563H794.35286656v436.42348688l-98.25881437 0.4705875-73.03528688 59.95293562-29.64705562-60.42352312h-40.37646656z m196.79998032 41.97646594H597.83523875v343.1529075h8.75294063l25.88234999 53.92940719 66.91764094-53.92940719h50.44705313z" fill="#FFFFFF" p-id="3591"></path></svg>